<?xml version="1.0" encoding="UTF-8" standalone="no"?>
<svg
   xmlns:dc="http://purl.org/dc/elements/1.1/"
   xmlns:cc="http://creativecommons.org/ns#"
   xmlns:rdf="http://www.w3.org/1999/02/22-rdf-syntax-ns#"
   xmlns:svg="http://www.w3.org/2000/svg"
   xmlns="http://www.w3.org/2000/svg"
   xmlns:sodipodi="http://sodipodi.sourceforge.net/DTD/sodipodi-0.dtd"
   xmlns:inkscape="http://www.inkscape.org/namespaces/inkscape"
   id="Lagom_Full_Color"
   data-name="Lagom Full Color"
   viewBox="0 0 748.66002 189.54892"
   version="1.1"
   sodipodi:docname="lagom.svg"
   width="440.38824"
   height="111.49937"
   inkscape:version="0.92+devel (e6b171abe9, 2017-12-26)">
  <metadata
     id="metadata45">
    <rdf:RDF>
      <cc:Work
         rdf:about="">
        <dc:format>image/svg+xml</dc:format>
        <dc:type
           rdf:resource="http://purl.org/dc/dcmitype/StillImage" />
        <dc:title>logom</dc:title>
      </cc:Work>
    </rdf:RDF>
  </metadata>
  <defs
     id="defs43" />
  <sodipodi:namedview
     pagecolor="#ffffff"
     bordercolor="#666666"
     inkscape:document-rotation="0"
     borderopacity="1"
     objecttolerance="10"
     gridtolerance="10"
     guidetolerance="10"
     inkscape:pageopacity="0"
     inkscape:pageshadow="2"
     inkscape:window-width="2397"
     inkscape:window-height="1104"
     id="namedview41"
     showgrid="false"
     scale-x="1.7"
     fit-margin-top="0"
     fit-margin-left="0"
     fit-margin-right="0"
     fit-margin-bottom="0"
     inkscape:zoom="1.5492021"
     inkscape:cx="177.56799"
     inkscape:cy="16.181564"
     inkscape:window-x="0"
     inkscape:window-y="0"
     inkscape:window-maximized="0"
     inkscape:current-layer="Lagom_Full_Color" />
  <title
     id="title2">logom</title>
  <g
     id="Lagom"
     transform="translate(-1,-1.1597295)">
    <path
       d="m 291.58,31.79 h 19.83 v 87.91 c 0,8.1 2.64,11.57 9.91,11.57 a 21.11,21.11 0 0 0 5.95,-0.66 v 17.69 a 35.63,35.63 0 0 1 -9.42,1 c -17.52,0 -26.28,-8.92 -26.28,-26.94 V 31.79 Z"
       fill="#652b7c"
       id="path4"
       inkscape:connector-curvature="0" />
    <path
       d="M 398.34,75.75 V 63.69 h 19.83 v 58.17 c 0,7.11 1.65,9.75 6.11,9.75 a 41.28,41.28 0 0 0 4.13,-0.33 v 16 a 28.65,28.65 0 0 1 -9.75,1.32 c -4.79,0 -8.59,-0.83 -11.57,-2.64 a 15.33,15.33 0 0 1 -6.78,-10.08 C 394.53,144.66 385,149 371.73,149 A 39.58,39.58 0 0 1 342,136.4 c -7.93,-8.43 -11.9,-18.67 -11.9,-31.07 0,-12.4 4,-22.64 11.9,-30.9 a 39.58,39.58 0 0 1 29.75,-12.56 c 13.37,0 23.45,5.95 26.59,13.88 z m -5.95,47.76 a 24.29,24.29 0 0 0 7.44,-18.18 24.29,24.29 0 0 0 -7.44,-18.18 24.68,24.68 0 0 0 -18,-7.27 23.93,23.93 0 0 0 -17.68,7.27 c -4.63,4.79 -6.94,10.91 -6.94,18.18 0,7.27 2.31,13.39 6.94,18.18 a 23.93,23.93 0 0 0 17.68,7.27 24.68,24.68 0 0 0 18,-7.27 z"
       fill="#652b7c"
       id="path6"
       inkscape:connector-curvature="0" />
    <path
       d="m 495.67,63.69 h 19.83 v 69.41 c 0,20 -2.81,32.23 -14,41 -7.93,6.11 -17.68,9.25 -29.42,9.25 -15.53,0 -28.92,-4 -40.32,-12.06 l 9.59,-14.71 a 50.47,50.47 0 0 0 28.59,9.09 q 11.65,0 18.34,-5 c 5.29,-3.8 7.93,-10.91 7.93,-21.15 v -4.13 c -4,7.11 -13.88,12.23 -27.1,12.23 a 40.53,40.53 0 0 1 -29.75,-12.23 c -7.93,-8.1 -11.9,-18.34 -11.9,-30.41 0,-12.07 4,-22.31 12.06,-30.57 A 39.23,39.23 0 0 1 469.1,61.85 c 13.72,0 23.8,5.78 26.61,13.88 V 63.69 Z M 489.72,123 a 24.19,24.19 0 0 0 7.44,-18 23.82,23.82 0 0 0 -7.44,-17.85 24.68,24.68 0 0 0 -18,-7.27 23.93,23.93 0 0 0 -17.72,7.27 24.69,24.69 0 0 0 -6.91,17.85 25.08,25.08 0 0 0 6.91,18 23.79,23.79 0 0 0 17.68,7.11 c 7.13,0.01 13.25,-2.3 18.04,-7.11 z"
       fill="#652b7c"
       id="path8"
       inkscape:connector-curvature="0" />
    <path
       d="m 522.44,105.33 a 42.05,42.05 0 0 1 13.22,-31.4 c 8.76,-8.43 19.5,-12.72 32.22,-12.72 12.72,0 23.47,4.3 32.23,12.72 a 42.05,42.05 0 0 1 13.22,31.4 42.05,42.05 0 0 1 -13.22,31.4 c -8.76,8.43 -19.5,12.72 -32.23,12.72 -12.73,0 -23.47,-4.3 -32.22,-12.72 a 42.05,42.05 0 0 1 -13.22,-31.4 z M 586.23,124 a 25.67,25.67 0 0 0 7.44,-18.67 25,25 0 0 0 -7.44,-18.51 26.13,26.13 0 0 0 -36.85,0 25.56,25.56 0 0 0 -7.27,18.51 26.22,26.22 0 0 0 7.27,18.67 26.54,26.54 0 0 0 36.85,0 z"
       fill="#652b7c"
       id="path10"
       inkscape:connector-curvature="0" />
    <path
       d="M 620.6,147 V 63.69 h 19.67 v 11.9 C 643.74,67.49 652,62 662.58,62 674,62 681.91,66.83 686,76.58 690.84,66.83 699.76,62 712.81,62 c 18,0 28.42,12.72 28.42,33.38 v 26.28 c 0,6.44 1.16,8.76 5.62,8.76 a 14.56,14.56 0 0 0 2.81,-0.33 v 16.69 a 28.37,28.37 0 0 1 -8.59,1 c -13.05,0 -19.5,-7.27 -19.5,-21.81 V 98.23 c 0,-11.4 -5.29,-18.51 -14.54,-18.51 -9.25,0 -16,8.1 -16,19.33 V 147 H 671.34 V 98.23 c 0,-11.4 -5.45,-18.51 -14.87,-18.51 -9.25,0 -16.2,8.1 -16.2,19.33 V 147 Z"
       fill="#652b7c"
       id="path12"
       inkscape:connector-curvature="0" />
  </g>
  <g
     id="Icon"
     transform="translate(-1,-1.1597295)">
    <path
       d="m 261,84 -70,34 70,34 c 0,0 -0.22,-67.73 0,-68 z"
       fill="#652b7c"
       id="path15"
       inkscape:connector-curvature="0" />
    <polygon
       points="121,152 191,118 121,84 "
       fill="#652b7c"
       id="polygon17" />
    <path
       d="m 191,118 70,34 c -0.27,0 -41.76,25 -60.63,36.24 a 17.64,17.64 0 0 1 -18,0 C 163.47,177 121,152 121,152 Z"
       fill="#421540"
       id="path19"
       inkscape:connector-curvature="0" />
    <path
       d="M 200.23,47.65 C 219.09,58.88 261,84 261,84 l -70,34 -70,-34 c 0.27,0 42.31,-25.12 61.18,-36.36 a 17.64,17.64 0 0 1 18.05,0.01 z"
       fill="#bf97c6"
       id="path21"
       inkscape:connector-curvature="0" />
    <path
       d="m 145,20.58 -35,17 35,17 c 0,0 -0.11,-33.86 0,-34 z"
       fill="#652b7c"
       id="path23"
       inkscape:connector-curvature="0" />
    <polygon
       points="75,54.58 110,37.58 75,20.58 "
       fill="#652b7c"
       id="polygon25" />
    <path
       d="m 110,37.58 35,17 c -0.14,0 -20.88,12.5 -30.31,18.12 a 8.82,8.82 0 0 1 -9,0 C 96.23,67.08 75,54.58 75,54.58 Z"
       fill="#421540"
       id="path27"
       inkscape:connector-curvature="0" />
    <path
       d="M 114.61,2.4 C 124,8 145,20.58 145,20.58 l -35,17 -35,-17 C 75.14,20.59 96.16,8 105.59,2.4 a 8.82,8.82 0 0 1 9.02,0 z"
       fill="#bf97c6"
       id="path29"
       inkscape:connector-curvature="0" />
    <path
       d="m 101,91 -50,24.54 50,24.53 c 0,0 -0.16,-48.86 0,-49.07 z"
       fill="#652b7c"
       id="path31"
       inkscape:connector-curvature="0" />
    <polygon
       points="1,140.07 51,115.54 1,91.02 "
       fill="#652b7c"
       id="polygon33" />
    <path
       d="m 51,115.54 50,24.53 c -0.19,0 -29.83,18 -43.3,26.14 a 12.5,12.5 0 0 1 -12.89,0 C 31.34,158.1 1,140.07 1,140.07 Z"
       fill="#421540"
       id="path35"
       inkscape:connector-curvature="0" />
    <path
       d="M 57.59,64.79 C 71.06,72.9 101,91 101,91 L 51,115.54 1,91 C 1.19,91 31.22,72.9 44.7,64.79 a 12.5,12.5 0 0 1 12.89,0 z"
       fill="#bf97c6"
       id="path37"
       inkscape:connector-curvature="0" />
  </g>
</svg>
