<?xml version="1.0" encoding="utf-8"?>
<!-- Generator: Adobe Illustrator 18.1.0, SVG Export Plug-In . SVG Version: 6.00 Build 0)  -->
<!DOCTYPE svg PUBLIC "-//W3C//DTD SVG 1.1//EN" "http://www.w3.org/Graphics/SVG/1.1/DTD/svg11.dtd">
<svg version="1.1" id="Layer_1" xmlns="http://www.w3.org/2000/svg" xmlns:xlink="http://www.w3.org/1999/xlink" x="0px" y="0px"
	 viewBox="0 0 517 270" enable-background="new 0 0 517 270" xml:space="preserve">
<g>
	<path fill="#92D13D" d="M36.9,26.4l6.2-6.2c9.5-9.4,25-8.8,33.7,1.3l85.8,100c7.5,8.7,7.4,21.6-0.2,30.2l-85.5,96.9
		c-8.8,9.9-24.1,10.4-33.5,1l-6.2-6.2c-8.4-8.4-9-21.8-1.4-31l51.2-61.4c7-8.4,7.1-20.5,0.3-29.1l-52-65
		C27.9,47.9,28.6,34.7,36.9,26.4z"/>
	<path fill="#49691F" d="M86.9,151.2l-51.2,61.4c-7.6,9.1-7,22.6,1.4,31l6.2,6.2c9.4,9.4,24.7,8.9,33.5-1l18.5-21
		c7-13.8,10.9-29.4,10.9-45.9c0-20.4-6-39.3-16.2-55.2C93.8,134.5,92.8,144.2,86.9,151.2z"/>
	<g>
		<path fill="#49691F" d="M206.6,209.5h-19.9V93.8h19.9v12.1c2.8-8.1,12.9-13.9,26.7-13.9c11.8,0,21.7,4.2,29.7,12.6
			c8.1,8.3,12.1,18.6,12.1,31s-4,22.7-12.1,31.2c-8,8.3-17.9,12.4-29.7,12.4c-13.8,0-23.9-5.8-26.7-13.9V209.5z M212.4,117.4
			c-4.8,4.8-7.3,11-7.3,18.3s2.5,13.4,7.3,18.3c5,4.8,11.1,7.3,18.3,7.3c7.1,0,12.9-2.5,17.6-7.3c4.8-4.8,7.1-11,7.1-18.3
			s-2.3-13.4-7.1-18.3c-4.6-4.8-10.5-7.3-17.6-7.3C223.6,110.1,217.4,112.6,212.4,117.4z"/>
		<path fill="#49691F" d="M282,61.8h19.9v88.3c0,8.1,2.7,11.6,10,11.6c2.3,0,4.3-0.2,6-0.7v17.8c-2.3,0.7-5.5,1-9.5,1
			c-17.6,0-26.4-9-26.4-27.1V61.8z"/>
		<path fill="#49691F" d="M385.3,105.9V93.8h19.9v58.4c0,7.1,1.7,9.8,6.1,9.8c1.2,0,2.7-0.2,4.2-0.3v16.1c-2.2,0.8-5.5,1.3-9.8,1.3
			c-4.8,0-8.6-0.8-11.6-2.7c-3.7-2.5-6-5.8-6.8-10.1c-5.8,8.8-15.4,13.1-28.7,13.1c-11.8,0-21.7-4.1-29.9-12.6
			c-8-8.5-12-18.8-12-31.2s4-22.7,12-31c8.1-8.5,18.1-12.6,29.9-12.6C372,92,382.1,98,385.3,105.9z M379.3,153.9
			c5-4.8,7.5-11,7.5-18.3s-2.5-13.4-7.5-18.3c-4.8-4.8-11-7.3-18.1-7.3s-12.9,2.5-17.8,7.3c-4.6,4.8-7,11-7,18.3s2.3,13.4,7,18.3
			c4.8,4.8,10.6,7.3,17.8,7.3S374.5,158.7,379.3,153.9z"/>
		<path fill="#49691F" d="M422.4,194.2c2.5,0.8,5.6,1.3,9.3,1.3c3.2,0,5.5-0.7,7.3-1.8c1.8-1.2,3.5-3.7,4.8-7.1l2.2-6l-35-86.8H431
			l24.6,63.1l23.1-63.1h20.1l-37.5,97.3c-2.5,6.5-5.5,11.5-9,14.9c-5,4.6-11.6,7-20.1,7c-3.7,0-7-0.5-9.8-1.3V194.2z"/>
	</g>
</g>
</svg>
