<svg version="1.1" viewBox="0.0 0.0 960.0 720.0" fill="none" stroke="none" stroke-linecap="square" stroke-miterlimit="10" xmlns:xlink="http://www.w3.org/1999/xlink" xmlns="http://www.w3.org/2000/svg"><clipPath id="p.0"><path d="m0 0l960.0 0l0 720.0l-960.0 0l0 -720.0z" clip-rule="nonzero"/></clipPath><g clip-path="url(#p.0)"><path fill="#000000" fill-opacity="0.0" d="m0 0l960.0 0l0 720.0l-960.0 0z" fill-rule="evenodd"/><path fill="#d9d2e9" d="m99.19906 218.86372l0 0c-6.4502716 -42.02072 14.727234 -83.61867 54.54612 -107.14232c39.81888 -23.523659 91.295746 -24.847473 132.5871 -3.4096985l0 0c14.626648 -24.432587 41.397705 -41.301598 72.21542 -45.504494c30.817719 -4.2028923 62.06247 4.753975 84.283264 24.161331l0 0c12.4600525 -22.152145 36.925537 -37.035564 64.71484 -39.36883c27.789337 -2.333271 54.969574 8.213821 71.89584 27.898617l0 0c22.510864 -23.481224 58.326233 -33.367794 91.94855 -25.38174c33.622314 7.9860573 59.012817 32.410374 65.18475 62.70441l0 0c27.57965 6.668762 50.552856 23.621658 62.98419 46.478577c12.431335 22.856934 13.101257 49.375687 1.8366699 72.704666l0 0c27.157898 31.333374 33.510803 73.08472 16.687927 109.67316c-16.822876 36.58847 -54.294067 62.51703 -98.42999 68.10962c-0.31103516 34.33957 -21.555786 65.84912 -55.545532 82.383545c-33.989746 16.534424 -75.41687 15.511749 -108.31354 -2.673767c-14.012207 41.127533 -53.451996 71.388824 -101.27988 77.70981c-47.82788 6.320984 -95.46976 -12.4314575 -122.34259 -48.15558c-32.94049 17.60852 -72.46631 22.68097 -109.66127 14.07312c-37.19496 -8.607849 -68.92592 -30.17096 -88.03502 -59.825134l0 0c-33.661026 3.4918518 -66.20659 -11.968109 -81.484436 -38.707184c-15.277851 -26.739075 -10.035702 -59.065125 13.124786 -80.934875l0 0c-30.026508 -15.666443 -45.347843 -46.753845 -37.97453 -77.05136c7.373314 -30.297531 35.77046 -52.93962 70.38344 -56.11934z" fill-rule="evenodd"/><path fill="#000000" fill-opacity="0.0" d="m66.12477 353.65396l0 0c14.169601 7.393036 30.538818 10.746704 46.909805 9.610687m21.442474 110.03406c7.0401306 -0.73031616 13.940796 -2.2768555 20.524033 -4.599701m177.1624 50.349762c-4.9515686 -6.5825195 -9.0972595 -13.616486 -12.366486 -20.982086m235.9975 -8.573364l0 0c2.5546875 -7.498169 4.209839 -15.215424 4.9379883 -23.02298m158.91492 -56.6839c0.3312378 -36.559784 -23.0932 -70.03427 -60.211792 -86.04523m141.95306 -91.73369c-6.0112305 12.44928 -15.188049 23.492874 -26.810974 32.264877m-38.004272 -151.45139l0 0c1.024231 5.027298 1.498291 10.130165 1.4155273 15.237862m-158.54614 -52.559013l0 0c-5.6153564 5.857399 -10.241638 12.402962 -13.734863 19.432884m-122.877106 -7.965225l0 0c-2.9924927 5.3202286 -5.2270813 10.949944 -6.652313 16.75946m-149.84866 4.584137l0 0c8.737213 4.5362167 16.820343 9.99604 24.071777 16.259537m-211.20258 94.293076l0 0c0.88900757 5.7915344 2.2937012 11.511673 4.2009125 17.106888" fill-rule="evenodd"/><path stroke="#000000" stroke-width="1.0" stroke-linejoin="round" stroke-linecap="butt" d="m99.19906 218.86372l0 0c-6.4502716 -42.02072 14.727234 -83.61867 54.54612 -107.14232c39.81888 -23.523659 91.295746 -24.847473 132.5871 -3.4096985l0 0c14.626648 -24.432587 41.397705 -41.301598 72.21542 -45.504494c30.817719 -4.2028923 62.06247 4.753975 84.283264 24.161331l0 0c12.4600525 -22.152145 36.925537 -37.035564 64.71484 -39.36883c27.789337 -2.333271 54.969574 8.213821 71.89584 27.898617l0 0c22.510864 -23.481224 58.326233 -33.367794 91.94855 -25.38174c33.622314 7.9860573 59.012817 32.410374 65.18475 62.70441l0 0c27.57965 6.668762 50.552856 23.621658 62.98419 46.478577c12.431335 22.856934 13.101257 49.375687 1.8366699 72.704666l0 0c27.157898 31.333374 33.510803 73.08472 16.687927 109.67316c-16.822876 36.58847 -54.294067 62.51703 -98.42999 68.10962c-0.31103516 34.33957 -21.555786 65.84912 -55.545532 82.383545c-33.989746 16.534424 -75.41687 15.511749 -108.31354 -2.673767c-14.012207 41.127533 -53.451996 71.388824 -101.27988 77.70981c-47.82788 6.320984 -95.46976 -12.4314575 -122.34259 -48.15558c-32.94049 17.60852 -72.46631 22.68097 -109.66127 14.07312c-37.19496 -8.607849 -68.92592 -30.17096 -88.03502 -59.825134l0 0c-33.661026 3.4918518 -66.20659 -11.968109 -81.484436 -38.707184c-15.277851 -26.739075 -10.035702 -59.065125 13.124786 -80.934875l0 0c-30.026508 -15.666443 -45.347843 -46.753845 -37.97453 -77.05136c7.373314 -30.297531 35.77046 -52.93962 70.38344 -56.11934z" fill-rule="evenodd"/><path stroke="#000000" stroke-width="1.0" stroke-linejoin="round" stroke-linecap="butt" d="m66.12477 353.65396l0 0c14.169601 7.393036 30.538818 10.746704 46.909805 9.610687m21.442474 110.03406c7.0401306 -0.73031616 13.940796 -2.2768555 20.524033 -4.599701m177.1624 50.349762c-4.9515686 -6.5825195 -9.0972595 -13.616486 -12.366486 -20.982086m235.9975 -8.573364l0 0c2.5546875 -7.498169 4.209839 -15.215424 4.9379883 -23.02298m158.91492 -56.6839c0.3312378 -36.559784 -23.0932 -70.03427 -60.211792 -86.04523m141.95306 -91.73369c-6.0112305 12.44928 -15.188049 23.492874 -26.810974 32.264877m-38.004272 -151.45139l0 0c1.024231 5.027298 1.498291 10.130165 1.4155273 15.237862m-158.54614 -52.559013l0 0c-5.6153564 5.857399 -10.241638 12.402962 -13.734863 19.432884m-122.877106 -7.965225l0 0c-2.9924927 5.3202286 -5.2270813 10.949944 -6.652313 16.75946m-149.84866 4.584137l0 0c8.737213 4.5362167 16.820343 9.99604 24.071777 16.259537m-211.20258 94.293076l0 0c0.88900757 5.7915344 2.2937012 11.511673 4.2009125 17.106888" fill-rule="evenodd"/><path fill="#cfe2f3" d="m150.69817 211.59888l0 0c0 -12.570892 10.19072 -22.761612 22.761612 -22.761612l91.0437 0l0 0c6.036743 0 11.826263 2.3981018 16.09488 6.666733c4.2686462 4.268631 6.666748 10.058121 6.666748 16.09488l0 91.2012c0 12.570892 -10.190735 22.761597 -22.761627 22.761597l-91.0437 0l0 0c-12.570892 0 -22.761612 -10.190704 -22.761612 -22.761597z" fill-rule="evenodd"/><path stroke="#000000" stroke-width="1.0" stroke-linejoin="round" stroke-linecap="butt" d="m150.69817 211.59888l0 0c0 -12.570892 10.19072 -22.761612 22.761612 -22.761612l91.0437 0l0 0c6.036743 0 11.826263 2.3981018 16.09488 6.666733c4.2686462 4.268631 6.666748 10.058121 6.666748 16.09488l0 91.2012c0 12.570892 -10.190735 22.761597 -22.761627 22.761597l-91.0437 0l0 0c-12.570892 0 -22.761612 -10.190704 -22.761612 -22.761597z" fill-rule="evenodd"/><path fill="#cfe2f3" d="m305.11548 232.79265l174.4252 0l0 -5.81102l11.62204 11.62204l-11.62204 11.622055l0 -5.81102l-174.4252 0z" fill-rule="evenodd"/><path stroke="#000000" stroke-width="1.0" stroke-linejoin="round" stroke-linecap="butt" d="m305.11548 232.79265l174.4252 0l0 -5.81102l11.62204 11.62204l-11.62204 11.622055l0 -5.81102l-174.4252 0z" fill-rule="evenodd"/><path fill="#d9ead3" d="m214.8819 238.60367l0 0c0 -6.4186707 5.4148865 -11.62204 12.094482 -11.62204l0 0c3.2076569 0 6.2839355 1.2244568 8.5520935 3.4040222c2.268158 2.1795502 3.542389 5.135666 3.542389 8.218018l0 0c0 6.418686 -5.4148865 11.622055 -12.094482 11.622055l0 0c-6.679596 0 -12.094482 -5.203369 -12.094482 -11.622055z" fill-rule="evenodd"/><path stroke="#000000" stroke-width="1.0" stroke-linejoin="round" stroke-linecap="butt" d="m214.8819 238.60367l0 0c0 -6.4186707 5.4148865 -11.62204 12.094482 -11.62204l0 0c3.2076569 0 6.2839355 1.2244568 8.5520935 3.4040222c2.268158 2.1795502 3.542389 5.135666 3.542389 8.218018l0 0c0 6.418686 -5.4148865 11.622055 -12.094482 11.622055l0 0c-6.679596 0 -12.094482 -5.203369 -12.094482 -11.622055z" fill-rule="evenodd"/><path fill="#000000" fill-opacity="0.0" d="m178.22047 329.30185l97.511795 0l0 40.0l-97.511795 0z" fill-rule="evenodd"/><path fill="#000000" d="m188.06422 351.92496l1.65625 -0.140625q0.125 1.0 0.546875 1.640625q0.4375 0.640625 1.34375 1.046875q0.921875 0.390625 2.0625 0.390625q1.0 0 1.78125 -0.296875q0.78125 -0.296875 1.15625 -0.8125q0.375 -0.53125 0.375 -1.15625q0 -0.625 -0.375 -1.09375q-0.359375 -0.46875 -1.1875 -0.796875q-0.546875 -0.203125 -2.390625 -0.640625q-1.828125 -0.453125 -2.5625 -0.84375q-0.96875 -0.5 -1.4375 -1.234375q-0.46875 -0.75 -0.46875 -1.671875q0 -1.0 0.578125 -1.875q0.578125 -0.890625 1.671875 -1.34375q1.109375 -0.453125 2.453125 -0.453125q1.484375 0 2.609375 0.484375q1.140625 0.46875 1.75 1.40625q0.609375 0.921875 0.65625 2.09375l-1.6875 0.125q-0.140625 -1.265625 -0.9375 -1.90625q-0.78125 -0.65625 -2.3125 -0.65625q-1.609375 0 -2.34375 0.59375q-0.734375 0.59375 -0.734375 1.421875q0 0.71875 0.53125 1.171875q0.5 0.46875 2.65625 0.96875q2.15625 0.484375 2.953125 0.84375q1.171875 0.53125 1.71875 1.359375q0.5625 0.828125 0.5625 1.90625q0 1.0625 -0.609375 2.015625q-0.609375 0.9375 -1.75 1.46875q-1.140625 0.515625 -2.578125 0.515625q-1.8125 0 -3.046875 -0.53125q-1.21875 -0.53125 -1.921875 -1.59375q-0.6875 -1.0625 -0.71875 -2.40625zm12.756073 8.015625l-0.1875 -1.53125q0.546875 0.140625 0.9375 0.140625q0.546875 0 0.875 -0.1875q0.328125 -0.171875 0.546875 -0.5q0.15625 -0.25 0.5 -1.21875q0.046875 -0.140625 0.140625 -0.40625l-3.671875 -9.6875l1.765625 0l2.015625 5.59375q0.390625 1.078125 0.703125 2.25q0.28125 -1.125 0.671875 -2.203125l2.078125 -5.640625l1.640625 0l-3.6875 9.828125q-0.59375 1.609375 -0.921875 2.203125q-0.4375 0.8125 -1.0 1.1875q-0.5625 0.375 -1.34375 0.375q-0.484375 0 -1.0625 -0.203125zm8.75 -6.609375l1.625 -0.25q0.125 0.96875 0.75 1.5q0.625 0.515625 1.75 0.515625q1.125 0 1.671875 -0.453125q0.546875 -0.46875 0.546875 -1.09375q0 -0.546875 -0.484375 -0.875q-0.328125 -0.21875 -1.671875 -0.546875q-1.8125 -0.46875 -2.515625 -0.796875q-0.6875 -0.328125 -1.046875 -0.90625q-0.359375 -0.59375 -0.359375 -1.3125q0 -0.640625 0.296875 -1.1875q0.296875 -0.5625 0.8125 -0.921875q0.375 -0.28125 1.03125 -0.46875q0.671875 -0.203125 1.421875 -0.203125q1.140625 0 2.0 0.328125q0.859375 0.328125 1.265625 0.890625q0.421875 0.5625 0.578125 1.5l-1.609375 0.21875q-0.109375 -0.75 -0.640625 -1.171875q-0.515625 -0.421875 -1.46875 -0.421875q-1.140625 0 -1.625 0.375q-0.46875 0.375 -0.46875 0.875q0 0.3125 0.1875 0.578125q0.203125 0.265625 0.640625 0.4375q0.234375 0.09375 1.4375 0.421875q1.75 0.453125 2.4375 0.75q0.6875 0.296875 1.078125 0.859375q0.390625 0.5625 0.390625 1.40625q0 0.828125 -0.484375 1.546875q-0.46875 0.71875 -1.375 1.125q-0.90625 0.390625 -2.046875 0.390625q-1.875 0 -2.875 -0.78125q-0.984375 -0.78125 -1.25 -2.328125zm13.5625 1.421875l0.234375 1.453125q-0.6875 0.140625 -1.234375 0.140625q-0.890625 0 -1.390625 -0.28125q-0.484375 -0.28125 -0.6875 -0.734375q-0.203125 -0.46875 -0.203125 -1.9375l0 -5.578125l-1.203125 0l0 -1.265625l1.203125 0l0 -2.390625l1.625 -0.984375l0 3.375l1.65625 0l0 1.265625l-1.65625 0l0 5.671875q0 0.6875 0.078125 0.890625q0.09375 0.203125 0.28125 0.328125q0.203125 0.109375 0.578125 0.109375q0.265625 0 0.71875 -0.0625zm8.230179 -1.640625l1.6875 0.203125q-0.40625 1.484375 -1.484375 2.3125q-1.078125 0.8125 -2.765625 0.8125q-2.125 0 -3.375 -1.296875q-1.234375 -1.3125 -1.234375 -3.671875q0 -2.453125 1.25 -3.796875q1.265625 -1.34375 3.265625 -1.34375q1.9375 0 3.15625 1.328125q1.234375 1.3125 1.234375 3.703125q0 0.15625 0 0.4375l-7.21875 0q0.09375 1.59375 0.90625 2.453125q0.8125 0.84375 2.015625 0.84375q0.90625 0 1.546875 -0.46875q0.640625 -0.484375 1.015625 -1.515625zm-5.390625 -2.65625l5.40625 0q-0.109375 -1.21875 -0.625 -1.828125q-0.78125 -0.953125 -2.03125 -0.953125q-1.125 0 -1.90625 0.765625q-0.765625 0.75 -0.84375 2.015625zm9.141342 5.765625l0 -9.671875l1.46875 0l0 1.359375q0.453125 -0.71875 1.203125 -1.140625q0.765625 -0.4375 1.71875 -0.4375q1.078125 0 1.765625 0.453125q0.6875 0.4375 0.96875 1.234375q1.15625 -1.6875 2.984375 -1.6875q1.453125 0 2.21875 0.796875q0.78125 0.796875 0.78125 2.453125l0 6.640625l-1.640625 0l0 -6.09375q0 -0.984375 -0.15625 -1.40625q-0.15625 -0.4375 -0.578125 -0.703125q-0.421875 -0.265625 -0.984375 -0.265625q-1.015625 0 -1.6875 0.6875q-0.671875 0.671875 -0.671875 2.15625l0 5.625l-1.640625 0l0 -6.28125q0 -1.09375 -0.40625 -1.640625q-0.40625 -0.546875 -1.3125 -0.546875q-0.6875 0 -1.28125 0.359375q-0.59375 0.359375 -0.859375 1.0625q-0.25 0.703125 -0.25 2.03125l0 5.015625l-1.640625 0zm21.259537 0l-1.6406097 0l0 -10.453125q-0.59375 0.5625 -1.5625 1.140625q-0.953125 0.5625 -1.71875 0.84375l0 -1.59375q1.375 -0.640625 2.40625 -1.5625q1.03125 -0.921875 1.453125 -1.78125l1.0624847 0l0 13.40625z" fill-rule="nonzero"/><path fill="#cfe2f3" d="m504.3701 210.69597l0 0c0 -12.07222 9.7864685 -21.858704 21.858673 -21.858704l92.84955 0l0 0c5.7973022 0 11.357117 2.3029633 15.456421 6.4022675c4.099304 4.099304 6.4022827 9.659149 6.4022827 15.456436l0 87.432205c0 12.072235 -9.786499 21.858704 -21.858704 21.858704l-92.84955 0c-12.072205 0 -21.858673 -9.7864685 -21.858673 -21.858704z" fill-rule="evenodd"/><path stroke="#000000" stroke-width="1.0" stroke-linejoin="round" stroke-linecap="butt" d="m504.3701 210.69597l0 0c0 -12.07222 9.7864685 -21.858704 21.858673 -21.858704l92.84955 0l0 0c5.7973022 0 11.357117 2.3029633 15.456421 6.4022675c4.099304 4.099304 6.4022827 9.659149 6.4022827 15.456436l0 87.432205c0 12.072235 -9.786499 21.858704 -21.858704 21.858704l-92.84955 0c-12.072205 0 -21.858673 -9.7864685 -21.858673 -21.858704z" fill-rule="evenodd"/><path fill="#d9ead3" d="m540.6483 233.02362l0 0c0 -6.4186707 5.414856 -11.62204 12.094482 -11.62204l0 0c3.2076416 0 6.2839355 1.2244568 8.552063 3.404007c2.2681885 2.1795654 3.5424194 5.135681 3.5424194 8.218033l0 0c0 6.418686 -5.414917 11.622055 -12.094482 11.622055l0 0c-6.6796265 0 -12.094482 -5.203369 -12.094482 -11.622055z" fill-rule="evenodd"/><path stroke="#000000" stroke-width="1.0" stroke-linejoin="round" stroke-linecap="butt" d="m540.6483 233.02362l0 0c0 -6.4186707 5.414856 -11.62204 12.094482 -11.62204l0 0c3.2076416 0 6.2839355 1.2244568 8.552063 3.404007c2.2681885 2.1795654 3.5424194 5.135681 3.5424194 8.218033l0 0c0 6.418686 -5.414917 11.622055 -12.094482 11.622055l0 0c-6.6796265 0 -12.094482 -5.203369 -12.094482 -11.622055z" fill-rule="evenodd"/><path fill="#ead1dc" d="m512.55646 213.02362l24.188965 0l0 23.244095l-24.188965 0z" fill-rule="evenodd"/><path stroke="#000000" stroke-width="1.0" stroke-linejoin="round" stroke-linecap="butt" d="m512.55646 213.02362l24.188965 0l0 23.244095l-24.188965 0z" fill-rule="evenodd"/><path fill="#ead1dc" d="m512.55646 235.81364l24.188965 0l0 23.244095l-24.188965 0z" fill-rule="evenodd"/><path stroke="#000000" stroke-width="1.0" stroke-linejoin="round" stroke-linecap="butt" d="m512.55646 235.81364l24.188965 0l0 23.244095l-24.188965 0z" fill-rule="evenodd"/><path fill="#000000" fill-opacity="0.0" d="m523.89764 330.23358l97.51178 0l0 40.0l-97.51178 0z" fill-rule="evenodd"/><path fill="#000000" d="m533.7414 352.85672l1.65625 -0.140625q0.125 1.0 0.546875 1.640625q0.4375 0.640625 1.34375 1.046875q0.921875 0.390625 2.0625 0.390625q1.0 0 1.78125 -0.296875q0.78125 -0.296875 1.15625 -0.8125q0.375 -0.53125 0.375 -1.15625q0 -0.625 -0.375 -1.09375q-0.359375 -0.46875 -1.1875 -0.796875q-0.546875 -0.203125 -2.390625 -0.640625q-1.828125 -0.453125 -2.5625 -0.84375q-0.96875 -0.5 -1.4375 -1.234375q-0.46875 -0.75 -0.46875 -1.671875q0 -1.0 0.578125 -1.875q0.578125 -0.890625 1.671875 -1.34375q1.109375 -0.453125 2.453125 -0.453125q1.484375 0 2.609375 0.484375q1.140625 0.46875 1.75 1.40625q0.609375 0.921875 0.65625 2.09375l-1.6875 0.125q-0.140625 -1.265625 -0.9375 -1.90625q-0.78125 -0.65625 -2.3125 -0.65625q-1.609375 0 -2.34375 0.59375q-0.734375 0.59375 -0.734375 1.421875q0 0.71875 0.53125 1.171875q0.5 0.46875 2.65625 0.96875q2.15625 0.484375 2.953125 0.84375q1.171875 0.53125 1.71875 1.359375q0.5625 0.828125 0.5625 1.90625q0 1.0625 -0.609375 2.015625q-0.609375 0.9375 -1.75 1.46875q-1.140625 0.515625 -2.578125 0.515625q-1.8125 0 -3.046875 -0.53125q-1.21875 -0.53125 -1.921875 -1.59375q-0.6875 -1.0625 -0.71875 -2.40625zm12.7560425 8.015625l-0.1875 -1.53125q0.546875 0.140625 0.9375 0.140625q0.546875 0 0.875 -0.1875q0.328125 -0.171875 0.546875 -0.5q0.15625 -0.25 0.5 -1.21875q0.046875 -0.140625 0.140625 -0.40625l-3.671875 -9.6875l1.765625 0l2.015625 5.59375q0.390625 1.078125 0.703125 2.25q0.28125 -1.125 0.671875 -2.203125l2.078125 -5.640625l1.640625 0l-3.6875 9.828125q-0.59375 1.609375 -0.921875 2.203125q-0.4375 0.8125 -1.0 1.1875q-0.5625 0.375 -1.34375 0.375q-0.484375 0 -1.0625 -0.203125zm8.75 -6.609375l1.625 -0.25q0.125 0.96875 0.75 1.5q0.625 0.515625 1.75 0.515625q1.125 0 1.671875 -0.453125q0.546875 -0.46875 0.546875 -1.09375q0 -0.546875 -0.484375 -0.875q-0.328125 -0.21875 -1.671875 -0.546875q-1.8125 -0.46875 -2.515625 -0.796875q-0.6875 -0.328125 -1.046875 -0.90625q-0.359375 -0.59375 -0.359375 -1.3125q0 -0.640625 0.296875 -1.1875q0.296875 -0.5625 0.8125 -0.921875q0.375 -0.28125 1.03125 -0.46875q0.671875 -0.203125 1.421875 -0.203125q1.140625 0 2.0 0.328125q0.859375 0.328125 1.265625 0.890625q0.421875 0.5625 0.578125 1.5l-1.609375 0.21875q-0.109375 -0.75 -0.640625 -1.171875q-0.515625 -0.421875 -1.46875 -0.421875q-1.140625 0 -1.625 0.375q-0.46875 0.375 -0.46875 0.875q0 0.3125 0.1875 0.578125q0.203125 0.265625 0.640625 0.4375q0.234375 0.09375 1.4375 0.421875q1.75 0.453125 2.4375 0.75q0.6875 0.296875 1.078125 0.859375q0.390625 0.5625 0.390625 1.40625q0 0.828125 -0.484375 1.546875q-0.46875 0.71875 -1.375 1.125q-0.90625 0.390625 -2.046875 0.390625q-1.875 0 -2.875 -0.78125q-0.984375 -0.78125 -1.25 -2.328125zm13.5625 1.421875l0.234375 1.453125q-0.6875 0.140625 -1.234375 0.140625q-0.890625 0 -1.390625 -0.28125q-0.484375 -0.28125 -0.6875 -0.734375q-0.203125 -0.46875 -0.203125 -1.9375l0 -5.578125l-1.203125 0l0 -1.265625l1.203125 0l0 -2.390625l1.625 -0.984375l0 3.375l1.65625 0l0 1.265625l-1.65625 0l0 5.671875q0 0.6875 0.078125 0.890625q0.09375 0.203125 0.28125 0.328125q0.203125 0.109375 0.578125 0.109375q0.265625 0 0.71875 -0.0625zm8.230225 -1.640625l1.6875 0.203125q-0.40625 1.484375 -1.484375 2.3125q-1.078125 0.8125 -2.765625 0.8125q-2.125 0 -3.375 -1.296875q-1.234375 -1.3125 -1.234375 -3.671875q0 -2.453125 1.25 -3.796875q1.265625 -1.34375 3.265625 -1.34375q1.9375 0 3.15625 1.328125q1.234375 1.3125 1.234375 3.703125q0 0.15625 0 0.4375l-7.21875 0q0.09375 1.59375 0.90625 2.453125q0.8125 0.84375 2.015625 0.84375q0.90625 0 1.546875 -0.46875q0.640625 -0.484375 1.015625 -1.515625zm-5.390625 -2.65625l5.40625 0q-0.109375 -1.21875 -0.625 -1.828125q-0.78125 -0.953125 -2.03125 -0.953125q-1.125 0 -1.90625 0.765625q-0.765625 0.75 -0.84375 2.015625zm9.141296 5.765625l0 -9.671875l1.46875 0l0 1.359375q0.453125 -0.71875 1.203125 -1.140625q0.765625 -0.4375 1.71875 -0.4375q1.078125 0 1.765625 0.453125q0.6875 0.4375 0.96875 1.234375q1.15625 -1.6875 2.984375 -1.6875q1.453125 0 2.21875 0.796875q0.78125 0.796875 0.78125 2.453125l0 6.640625l-1.640625 0l0 -6.09375q0 -0.984375 -0.15625 -1.40625q-0.15625 -0.4375 -0.578125 -0.703125q-0.421875 -0.265625 -0.984375 -0.265625q-1.015625 0 -1.6875 0.6875q-0.671875 0.671875 -0.671875 2.15625l0 5.625l-1.640625 0l0 -6.28125q0 -1.09375 -0.40625 -1.640625q-0.40625 -0.546875 -1.3125 -0.546875q-0.6875 0 -1.28125 0.359375q-0.59375 0.359375 -0.859375 1.0625q-0.25 0.703125 -0.25 2.03125l0 5.015625l-1.640625 0zm23.697083 -1.578125l0 1.578125l-8.828125 0q-0.015625 -0.59375 0.1875 -1.140625q0.34375 -0.90625 1.078125 -1.78125q0.75 -0.875 2.15625 -2.015625q2.171875 -1.78125 2.9375 -2.828125q0.765625 -1.046875 0.765625 -1.96875q0 -0.984375 -0.703125 -1.640625q-0.6875 -0.671875 -1.8125 -0.671875q-1.1875 0 -1.90625 0.71875q-0.703125 0.703125 -0.703125 1.953125l-1.6875 -0.171875q0.171875 -1.890625 1.296875 -2.875q1.140625 -0.984375 3.03125 -0.984375q1.921875 0 3.046875 1.0625q1.125 1.0625 1.125 2.640625q0 0.796875 -0.328125 1.578125q-0.328125 0.78125 -1.09375 1.640625q-0.75 0.84375 -2.53125 2.34375q-1.46875 1.234375 -1.890625 1.6875q-0.421875 0.4375 -0.6875 0.875l6.546875 0z" fill-rule="nonzero"/></g></svg>