<?xml version="1.0" encoding="UTF-8" standalone="no"?>
<!-- Generator: Adobe Illustrator 18.1.0, SVG Export Plug-In . SVG Version: 6.00 Build 0)  -->

<svg
   xmlns:dc="http://purl.org/dc/elements/1.1/"
   xmlns:cc="http://creativecommons.org/ns#"
   xmlns:rdf="http://www.w3.org/1999/02/22-rdf-syntax-ns#"
   xmlns:svg="http://www.w3.org/2000/svg"
   xmlns="http://www.w3.org/2000/svg"
   xmlns:sodipodi="http://sodipodi.sourceforge.net/DTD/sodipodi-0.dtd"
   xmlns:inkscape="http://www.inkscape.org/namespaces/inkscape"
   version="1.1"
   id="Layer_1"
   x="0px"
   y="0px"
   viewBox="0 0 468.61905 243.02828"
   enable-background="new 0 0 517 270"
   xml:space="preserve"
   sodipodi:docname="play.svg"
   width="275.65826"
   height="142.95781"
   inkscape:version="0.92+devel (e6b171abe9, 2017-12-26)"><metadata
   id="metadata68"><rdf:RDF><cc:Work
       rdf:about=""><dc:format>image/svg+xml</dc:format><dc:type
         rdf:resource="http://purl.org/dc/dcmitype/StillImage" /><dc:title></dc:title></cc:Work></rdf:RDF></metadata><defs
   id="defs66" /><sodipodi:namedview
   pagecolor="#ffffff"
   bordercolor="#666666"
   inkscape:document-rotation="0"
   borderopacity="1"
   objecttolerance="10"
   gridtolerance="10"
   guidetolerance="10"
   inkscape:pageopacity="0"
   inkscape:pageshadow="2"
   inkscape:window-width="2397"
   inkscape:window-height="1104"
   id="namedview64"
   showgrid="false"
   scale-x="1.7"
   fit-margin-top="0"
   fit-margin-left="0"
   fit-margin-right="0"
   fit-margin-bottom="0"
   inkscape:zoom="2.2533849"
   inkscape:cx="21.879283"
   inkscape:cy="53.02499"
   inkscape:window-x="0"
   inkscape:window-y="0"
   inkscape:window-maximized="0"
   inkscape:current-layer="Layer_1" />
<g
   id="g61"
   transform="translate(-30.180936,-13.520151)">
	<path
   fill="#92D13D"
   d="m 36.9,26.4 6.2,-6.2 c 9.5,-9.4 25,-8.8 33.7,1.3 l 85.8,100 c 7.5,8.7 7.4,21.6 -0.2,30.2 l -85.5,96.9 c -8.8,9.9 -24.1,10.4 -33.5,1 l -6.2,-6.2 c -8.4,-8.4 -9,-21.8 -1.4,-31 L 87,151 c 7,-8.4 7.1,-20.5 0.3,-29.1 l -52,-65 c -7.4,-9 -6.7,-22.2 1.6,-30.5 z"
   id="path47"
   inkscape:connector-curvature="0" />
	<path
   fill="#49691F"
   d="m 86.9,151.2 -51.2,61.4 c -7.6,9.1 -7,22.6 1.4,31 l 6.2,6.2 c 9.4,9.4 24.7,8.9 33.5,-1 l 18.5,-21 c 7,-13.8 10.9,-29.4 10.9,-45.9 0,-20.4 -6,-39.3 -16.2,-55.2 3.8,7.8 2.8,17.5 -3.1,24.5 z"
   id="path49"
   inkscape:connector-curvature="0" />
	<g
   id="g59">
		<path
   fill="#49691F"
   d="M 206.6,209.5 H 186.7 V 93.8 h 19.9 v 12.1 c 2.8,-8.1 12.9,-13.9 26.7,-13.9 11.8,0 21.7,4.2 29.7,12.6 8.1,8.3 12.1,18.6 12.1,31 0,12.4 -4,22.7 -12.1,31.2 -8,8.3 -17.9,12.4 -29.7,12.4 -13.8,0 -23.9,-5.8 -26.7,-13.9 z m 5.8,-92.1 c -4.8,4.8 -7.3,11 -7.3,18.3 0,7.3 2.5,13.4 7.3,18.3 5,4.8 11.1,7.3 18.3,7.3 7.1,0 12.9,-2.5 17.6,-7.3 4.8,-4.8 7.1,-11 7.1,-18.3 0,-7.3 -2.3,-13.4 -7.1,-18.3 -4.6,-4.8 -10.5,-7.3 -17.6,-7.3 -7.1,0 -13.3,2.5 -18.3,7.3 z"
   id="path51"
   inkscape:connector-curvature="0" />
		<path
   fill="#49691F"
   d="m 282,61.8 h 19.9 v 88.3 c 0,8.1 2.7,11.6 10,11.6 2.3,0 4.3,-0.2 6,-0.7 v 17.8 c -2.3,0.7 -5.5,1 -9.5,1 -17.6,0 -26.4,-9 -26.4,-27.1 z"
   id="path53"
   inkscape:connector-curvature="0" />
		<path
   fill="#49691F"
   d="M 385.3,105.9 V 93.8 h 19.9 v 58.4 c 0,7.1 1.7,9.8 6.1,9.8 1.2,0 2.7,-0.2 4.2,-0.3 v 16.1 c -2.2,0.8 -5.5,1.3 -9.8,1.3 -4.8,0 -8.6,-0.8 -11.6,-2.7 -3.7,-2.5 -6,-5.8 -6.8,-10.1 -5.8,8.8 -15.4,13.1 -28.7,13.1 -11.8,0 -21.7,-4.1 -29.9,-12.6 -8,-8.5 -12,-18.8 -12,-31.2 0,-12.4 4,-22.7 12,-31 8.1,-8.5 18.1,-12.6 29.9,-12.6 13.4,0 23.5,6 26.7,13.9 z m -6,48 c 5,-4.8 7.5,-11 7.5,-18.3 0,-7.3 -2.5,-13.4 -7.5,-18.3 -4.8,-4.8 -11,-7.3 -18.1,-7.3 -7.1,0 -12.9,2.5 -17.8,7.3 -4.6,4.8 -7,11 -7,18.3 0,7.3 2.3,13.4 7,18.3 4.8,4.8 10.6,7.3 17.8,7.3 7.2,0 13.3,-2.5 18.1,-7.3 z"
   id="path55"
   inkscape:connector-curvature="0" />
		<path
   fill="#49691F"
   d="m 422.4,194.2 c 2.5,0.8 5.6,1.3 9.3,1.3 3.2,0 5.5,-0.7 7.3,-1.8 1.8,-1.2 3.5,-3.7 4.8,-7.1 l 2.2,-6 -35,-86.8 h 20 l 24.6,63.1 23.1,-63.1 h 20.1 l -37.5,97.3 c -2.5,6.5 -5.5,11.5 -9,14.9 -5,4.6 -11.6,7 -20.1,7 -3.7,0 -7,-0.5 -9.8,-1.3 z"
   id="path57"
   inkscape:connector-curvature="0" />
	</g>
</g>
</svg>